<?xml version="1.0" encoding="UTF-8"?>
<svg width="800" height="600" viewBox="0 0 800 600" xmlns="http://www.w3.org/2000/svg" aria-hidden="true">
  <defs>
    <linearGradient id="g1" x1="0" x2="1">
      <stop offset="0%" stop-color="#2b7bff"/>
      <stop offset="100%" stop-color="#66d2ff"/>
    </linearGradient>
  </defs>
  <g transform="translate(50,40)">
    <path d="M220 40 C300 10, 420 10, 500 60 C560 90, 590 140, 570 200 C560 240, 520 270, 480 300 C440 330, 380 350, 320 360 C260 370, 200 360, 160 330 C120 300, 100 250, 110 200 C120 150, 160 100, 220 80 Z"
          fill="url(#g1)" opacity="0.95"/>
    <path d="M210 120 C260 100, 320 100, 370 120" stroke="#fff" stroke-opacity="0.12" stroke-width="6" fill="none"/>
    <path d="M240 160 C300 150, 360 150, 420 170" stroke="#fff" stroke-opacity="0.10" stroke-width="5" fill="none"/>
    <path d="M200 200 C260 190, 320 190, 380 210" stroke="#fff" stroke-opacity="0.08" stroke-width="4" fill="none"/>
    <circle cx="460" cy="140" r="6" fill="#ffffff" opacity="0.9"/>
    <circle cx="300" cy="230" r="5" fill="#ffffff" opacity="0.85"/>
    <circle cx="380" cy="280" r="4" fill="#ffffff" opacity="0.8"/>
  </g>
</svg>
